<svg xmlns="http://www.w3.org/2000/svg" width="20.398" height="20.056" viewBox="0 0 20.398 20.056"><defs><style>.a{fill:#868686;}</style></defs><g transform="translate(0 -4.296)"><g transform="translate(0 5.524)"><g transform="translate(0 0)"><path class="a" d="M15.855,46.889a.99.99,0,0,0-.991.991v3.112a.991.991,0,0,1-.991.991H2.973a.991.991,0,0,1-.991-.991V38.111a.991.991,0,0,1,.991-.991H8.73a.991.991,0,0,0,0-1.982H2.973A2.976,2.976,0,0,0,0,38.111V50.992a2.976,2.976,0,0,0,2.973,2.973h10.9a2.976,2.976,0,0,0,2.973-2.973V47.88A.99.99,0,0,0,15.855,46.889Z" transform="translate(0 -35.138)"/></g></g><g transform="translate(5.708 4.296)"><g transform="translate(0 0)"><path class="a" d="M156.847,5.4a3.814,3.814,0,0,0-5.356-.009L144.783,12.1a5.171,5.171,0,0,0-1.518,3.672v2.22a.99.99,0,0,0,.991.991h2.22a5.172,5.172,0,0,0,3.673-1.519l6.7-6.7A3.8,3.8,0,0,0,156.847,5.4Zm-8.1,10.661a3.2,3.2,0,0,1-2.273.939h-1.229V15.77a3.2,3.2,0,0,1,.938-2.272l4.422-4.422,2.562,2.562Zm6.7-6.7-.875.875-2.562-2.562.875-.875a1.812,1.812,0,0,1,2.563,2.562Z" transform="translate(-143.265 -4.296)"/></g></g></g></svg>