<svg xmlns="http://www.w3.org/2000/svg" width="14.599" height="20.056" viewBox="0 0 15.599 20.056"><defs><style>.a{fill:#868686;}</style></defs><path class="a" d="M6.114,20.827a2.235,2.235,0,0,0,2.228,2.228h8.914a2.235,2.235,0,0,0,2.228-2.228V9.685a2.235,2.235,0,0,0-2.228-2.228H8.342A2.235,2.235,0,0,0,6.114,9.685ZM19.484,4.114H16.7l-.791-.791A1.124,1.124,0,0,0,15.128,3H10.471a1.124,1.124,0,0,0-.78.323L8.9,4.114H6.114a1.114,1.114,0,1,0,0,2.228h13.37a1.114,1.114,0,0,0,0-2.228Z" transform="translate(-5 -3)"/></svg>